<svg xmlns="http://www.w3.org/2000/svg" viewBox="0 0 256 256">
  <defs>
    <linearGradient id="grad1" x1="0%" y1="0%" x2="100%" y2="100%">
      <stop offset="0%" style="stop-color:#2563eb;stop-opacity:1" />
      <stop offset="100%" style="stop-color:#10b981;stop-opacity:1" />
    </linearGradient>
  </defs>
  <rect width="256" height="256" fill="#1e293b" rx="24"/>
  <rect x="32" y="48" width="192" height="160" rx="8" fill="#334155"/>
  <rect x="40" y="56" width="176" height="144" rx="4" fill="#0f172a"/>
  <path d="M56 160 L80 140 L104 155 L128 120 L152 135 L176 100" stroke="url(#grad1)" stroke-width="4" fill="none" stroke-linecap="round" stroke-linejoin="round"/>
  <circle cx="56" cy="160" r="5" fill="#10b981"/>
  <circle cx="80" cy="140" r="5" fill="#10b981"/>
  <circle cx="104" cy="155" r="5" fill="#10b981"/>
  <circle cx="128" cy="120" r="5" fill="#10b981"/>
  <circle cx="152" cy="135" r="5" fill="#10b981"/>
  <circle cx="176" cy="100" r="5" fill="#10b981"/>
  <rect x="56" y="72" width="24" height="8" rx="2" fill="#2563eb" opacity="0.6"/>
  <rect x="88" y="72" width="32" height="8" rx="2" fill="#10b981" opacity="0.6"/>
  <rect x="128" y="72" width="20" height="8" rx="2" fill="#2563eb" opacity="0.4"/>
  <circle cx="192" cy="192" r="28" fill="#10b981"/>
  <circle cx="192" cy="192" r="18" fill="#0f172a"/>
  <rect x="205" y="205" width="28" height="8" rx="4" fill="#10b981" transform="rotate(45 219 209)"/>
</svg>